# xmcd
#
# Track frame offsets:
#	150
#	11634
#	29332
#	42205
#	59629
#	72990
#	89662
#	106177
#	115651
#	127724
#	139982
#	162086
#	180809
#
# Disc length: 2566 seconds
#
# Revision: 0
# Processed by: cddbd v1.5.1PL2 Copyright (c) Steve Scherf et al.
# Submitted via: dBpowerAMP V4.0
#
DISCID=a60a040d
DTITLE=Little Country Giants - Breaking Hearts and Living Free
DYEAR=2005
DGENRE=Bluegrass
TTITLE0=Gone For Awhile
TTITLE1=I Remember
TTITLE2=Last Lonely Goodbye
TTITLE3=Something to be Proud Of
TTITLE4=Come Go With Me
TTITLE5=Right or Wrong
TTITLE6=Going Home
TTITLE7=Big Freightliner
TTITLE8=Don't Trade Your Lonliness
TTITLE9=More Than Everything
TTITLE10=Hold On To Me
TTITLE11=Breaking Hearts and Living Free
TTITLE12=Willie Dear
EXTD=Recently voted Creative Loafing's Best Local Traditional Folk Act (Reader's Choice) in the Best of Atlanta 2005 edition
EXTT0=
EXTT1=
EXTT2=
EXTT3=
EXTT4=
EXTT5=
EXTT6=
EXTT7=
EXTT8=
EXTT9=
EXTT10=
EXTT11=
EXTT12=
PLAYORDER=
